<svg width="536" height="422" viewBox="0 0 536 422" fill="none" xmlns="http://www.w3.org/2000/svg">
<g filter="url(#filter0_f_2051_1395)">
<rect width="15.0406" height="15.0406" rx="1.48034" transform="matrix(1 -8.74228e-08 -8.74228e-08 -1 104.945 217.158)" fill="#00B068"/>
<rect width="15.0406" height="15.0406" rx="1.48034" transform="matrix(1 -8.74228e-08 -8.74228e-08 -1 235.939 23.2344)" fill="#00B068"/>
<rect width="22.5609" height="22.5609" rx="1.48034" transform="matrix(1 -8.74228e-08 -8.74228e-08 -1 209.294 390.477)" fill="#00B068"/>
<rect width="22.5609" height="22.5609" rx="1.48034" transform="matrix(1 -8.74228e-08 -8.74228e-08 -1 40.5352 263.168)" fill="#00B068"/>
<rect width="7.52029" height="7.52029" rx="1.48034" transform="matrix(1 -8.74228e-08 -8.74228e-08 -1 216.695 123.777)" fill="#00B068"/>
<rect width="7.52029" height="7.52029" rx="1.48034" transform="matrix(1 -8.74228e-08 -8.74228e-08 -1 7.96777 153.803)" fill="#00B068"/>
<rect width="7.52029" height="7.52029" rx="1.48034" transform="matrix(1 -8.74228e-08 -8.74228e-08 -1 353.761 368.547)" fill="#00B068"/>
<rect width="7.52029" height="7.52029" rx="1.48034" transform="matrix(1 -8.74228e-08 -8.74228e-08 -1 521.039 414.438)" fill="#00B068"/>
<rect width="15.0406" height="15.0406" rx="1.48034" transform="matrix(1 -8.74228e-08 -8.74228e-08 -1 262.586 231.961)" fill="#00B068"/>
<rect width="7.52029" height="7.52029" rx="1.48034" transform="matrix(1 -8.74228e-08 -8.74228e-08 -1 323.279 89.7305)" fill="#00B068"/>
</g>
<defs>
<filter id="filter0_f_2051_1395" x="-1.40169" y="-0.401686" width="540.803" height="422.803" filterUnits="userSpaceOnUse" color-interpolation-filters="sRGB">
<feFlood flood-opacity="0" result="BackgroundImageFix"/>
<feBlend mode="normal" in="SourceGraphic" in2="BackgroundImageFix" result="shape"/>
<feGaussianBlur stdDeviation="3.70084" result="effect1_foregroundBlur_2051_1395"/>
</filter>
</defs>
</svg>
